# xmcd CD database file
#
# Track frame offsets:
#	151
#	21695
#	40106
#	68448
#	84311
#	103705
#	119924
#	136126
#	163602
#	192903
#
# Disc length: 2901 seconds
#
# Revision: 0
# Processed by: cddbd v1.5.1PL0 Copyright (c) Steve Scherf et al.
# Submitted via: CDex 1.51
#
DISCID=850b530a
DTITLE=dip - funmachine
DYEAR=2004
DGENRE=Rock
TTITLE0=slower (flower not needed)
TTITLE1=it's late
TTITLE2=it's too late
TTITLE3=drums a go-go
TTITLE4=boxer
TTITLE5=motor ash
TTITLE6=charlotte
TTITLE7=week or day
TTITLE8=sunday dawning,sunday yawning
TTITLE9=fun machine
EXTD=YEAR: 2004.11/03
EXTT0=
EXTT1=
EXTT2=
EXTT3=
EXTT4=
EXTT5=
EXTT6=
EXTT7=
EXTT8=
EXTT9=
PLAYORDER=
